<svg xmlns="http://www.w3.org/2000/svg" width="16" height="16" fill="none" viewBox="0 0 16 16">
    <path fill="#F6C358" d="M11.473 4.871H4.188l1.02-1.18c.137-.159.137-.415 0-.573-.138-.158-.361-.157-.498.001L3.102 4.98c-.07.08-.103.187-.102.292v.005c0 .14.062.265.156.337L4.71 7.411c.137.158.36.159.497.001.138-.158.138-.414.001-.573l-1-1.157h7.265c1.557 0 2.824 1.46 2.824 3.254s-1.267 3.254-2.824 3.254H3.352c-.195 0-.352.181-.352.405 0 .224.157.405.352.405h8.12C13.419 13 15 11.177 15 8.936S13.418 4.87 11.473 4.87z"/>
</svg>
