<svg xmlns="http://www.w3.org/2000/svg" width="22" height="22" fill="none" viewBox="0 0 22 22">
    <rect width="22" height="22" fill="#F6C358" rx="4"/>
    <path fill="#fff" d="M17.029 6.55h-5.064c-.206 0-.407-.088-.545-.236L9.84 4.593C9.46 4.2 8.94 3.997 8.413 4H4.97C3.884 4 3 4.914 3 6.038v9.924C3 17.086 3.884 18 4.971 18h12.067c1.086-.005 1.967-.924 1.962-2.044V8.588c0-1.124-.884-2.039-1.971-2.039zm.765 9.408c.002.436-.34.793-.76.795H4.972c-.422 0-.765-.355-.765-.791V6.038c0-.436.343-.791.765-.792H8.45c.202 0 .397.083.528.218l1.572 1.712c.369.394.885.62 1.416.62h5.064c.422 0 .765.355.765.792v7.37z"/>
</svg>
