<svg xmlns="http://www.w3.org/2000/svg" width="40" height="40" fill="none" viewBox="0 0 40 40">
    <path stroke="#232020" stroke-linecap="round" stroke-linejoin="round" stroke-width="3.333" d="M19 35c8.837 0 16-7.163 16-16S27.837 3 19 3 3 10.163 3 19s7.163 16 16 16z"/>
    <path fill="#232020" d="M19.482 24.571h-.965c-.68 0-1.231.5-1.231 1.113v1.203c0 .614.552 1.113 1.231 1.113h.965c.68 0 1.232-.499 1.232-1.113v-1.203c0-.616-.552-1.113-1.232-1.113zM13.529 15.414l1.62.204c.514.065 1.002-.235 1.187-.725.234-.62.559-1.108.976-1.464.59-.504 1.325-.758 2.203-.758.91 0 1.636.242 2.174.725.538.485.806 1.065.806 1.745 0 .489-.152.936-.455 1.341-.196.258-.8.8-1.807 1.627-1.01.828-1.68 1.574-2.017 2.237-.344.678-.463 1.43-.493 2.184-.026.646.482 1.184 1.121 1.184h.916c.583 0 1.066-.452 1.118-1.04.037-.422.106-.742.211-.96.176-.373.63-.866 1.359-1.48 1.411-1.183 2.33-2.12 2.762-2.809.43-.687.647-1.416.647-2.187 0-1.393-.585-2.614-1.757-3.664C22.93 10.524 21.353 10 19.371 10c-1.884 0-3.403.517-4.562 1.553-.987.883-1.587 1.929-1.798 3.135-.066.353.172.682.518.726z"/>
</svg>
