<svg xmlns="http://www.w3.org/2000/svg" width="15" height="18" fill="none" viewBox="0 0 15 18">
    <path fill="#1AA674" d="M13.274 8.473h-8.67V5.8c0-1.454 1.308-2.637 2.915-2.637 1.587 0 2.877 1.183 2.877 2.637v2.883c0 .29.258 0 .576 0h2.302c.318 0 .575.29.575 0V5.8C13.85 2.602 11.01 0 7.52 0 4.008 0 1.151 2.602 1.151 5.8v2.763C.48 8.781 0 9.367 0 10.055v6.363C0 17.29.774 18 1.726 18h11.548c.952 0 1.726-.71 1.726-1.582v-6.363c0-.873-.774-1.582-1.726-1.582zM2.302 5.8c0-2.617 2.34-4.746 5.217-4.746 2.856 0 5.18 2.129 5.18 4.746v2.672h-1.152V5.8c0-2.036-1.807-3.692-4.028-3.692-2.228 0-4.066 1.657-4.066 3.692v2.672H2.302V5.8zm11.547 10.617c0 .29-.258.527-.575.527H1.726c-.317 0-.575-.236-.575-.527v-6.363c0-.291.258-.528.575-.528h11.548c.317 0 .575.237.575.528v6.363z"/>
    <path fill="#1AA674" d="M7.5 11c-.827 0-1.5.668-1.5 1.49 0 .648.418 1.2 1 1.405v1.608c0 .275.224.497.5.497s.5-.222.5-.497v-1.608c.582-.205 1-.757 1-1.405C9 11.668 8.327 11 7.5 11zm0 1.987c-.276 0-.5-.223-.5-.497s.224-.497.5-.497.5.223.5.497-.224.497-.5.497z"/>
</svg>
