<svg width="376" height="359" viewBox="0 0 376 359" fill="none" xmlns="http://www.w3.org/2000/svg">
<path d="M173.852 28H97.5C59 28 16 74 16 111C16 149 47.4656 193 97.5 193C147.534 193 226 193 267 193C308 193 330 223 330 247C330 271 308 301 267 301C226 301 135 301 135 301V285H267C308 285 314 255.5 314 247C314 239.5 308 209 267 209H97.5C45.3596 209 0 165 0 111C0 58 60.2881 12 97.5 12H173.852V28Z" fill="#232020"/>
<path d="M323 119H99.0921C94.9604 119 92 116.004 92 112V110C92 105.85 94.9604 103 99.0921 103H323V119Z" fill="#232020"/>
<path d="M53 239H276.73C280.73 239 284 242.078 284 245.894V247.975C284 251.791 280.499 255 276.5 255H53V239Z" fill="#232020"/>
<path d="M97 58H248V74H98C87.6593 74 62 84.5 62 111C62 143 88.4257 148.74 97.2372 148.74H283.5C307.5 148.74 376 165 376 247C376 331 308 347 267 347H206V331H267C308 331 360 300.5 360 247C360 194.138 315.833 165 283.5 165H97.2372C70.1475 164.563 46 143.178 46 111C46.0728 76.6382 78.7217 58 97 58Z" fill="#232020"/>
<path d="M244 88C255.046 88 264 79.0457 264 68C264 56.9543 255.046 48 244 48C232.954 48 224 56.9543 224 68C224 79.0457 232.954 88 244 88Z" fill="#232020"/>
<path d="M330 131C341.046 131 350 122.046 350 111C350 99.9543 341.046 91 330 91C318.954 91 310 99.9543 310 111C310 122.046 318.954 131 330 131Z" fill="#232020"/>
<path d="M38 267C49.0457 267 58 258.046 58 247C58 235.954 49.0457 227 38 227C26.9543 227 18 235.954 18 247C18 258.046 26.9543 267 38 267Z" fill="#232020"/>
<path d="M121 313C132.046 313 141 304.046 141 293C141 281.954 132.046 273 121 273C109.954 273 101 281.954 101 293C101 304.046 109.954 313 121 313Z" fill="#232020"/>
<path d="M203 359C214.046 359 223 350.046 223 339C223 327.954 214.046 319 203 319C191.954 319 183 327.954 183 339C183 350.046 191.954 359 203 359Z" fill="#232020"/>
<path d="M163 40C174.046 40 183 31.0457 183 20C183 8.9543 174.046 0 163 0C151.954 0 143 8.9543 143 20C143 31.0457 151.954 40 163 40Z" fill="#232020"/>
</svg>
