<svg xmlns="http://www.w3.org/2000/svg" width="16" height="16" fill="none" viewBox="0 0 16 16">
    <path fill="#F6C358" d="M12.521 4.821H8.723c-.154 0-.304-.062-.408-.168L7.13 3.423c-.285-.28-.675-.425-1.07-.423H3.48C2.663 3 2 3.653 2 4.456v7.088C2 12.347 2.663 13 3.479 13h9.049c.815-.004 1.476-.66 1.472-1.46V6.277c0-.803-.663-1.456-1.479-1.456zm.575 6.72c.001.312-.255.567-.57.569H3.479c-.317 0-.575-.254-.575-.566V4.456c0-.312.258-.566.575-.566h2.608c.151 0 .297.06.396.155L7.662 5.27c.276.281.664.442 1.061.442h3.798c.317 0 .575.254.575.566v5.264z"/>
</svg>
