<svg xmlns="http://www.w3.org/2000/svg" width="16" height="16" fill="none" viewBox="0 0 16 16">
    <path fill="#615E5E" d="M15.123 6.263l-1.254-.16c-.103-.318-.23-.624-.38-.916l.775-.996c.313-.404.277-.973-.081-1.32l-1.05-1.05c-.35-.361-.92-.397-1.324-.084l-.995.774c-.292-.149-.598-.276-.917-.38L9.737.88C9.678.378 9.253 0 8.748 0H7.254c-.505 0-.931.378-.991.878l-.16 1.253c-.318.104-.625.23-.916.38l-.996-.774c-.403-.313-.972-.277-1.32.081l-1.05 1.05c-.36.35-.398.92-.084 1.323l.774.996c-.15.292-.276.598-.38.916l-1.251.16c-.502.06-.88.486-.88.99v1.494c0 .504.378.93.878.99l1.253.16c.104.318.231.624.38.916l-.774.996c-.314.404-.277.973.081 1.32l1.05 1.05c.35.36.92.396 1.324.084l.996-.774c.29.149.598.276.916.379l.159 1.25c.06.504.486.882.99.882h1.494c.505 0 .93-.378.99-.878l.16-1.253c.318-.104.625-.231.916-.38l.997.774c.403.314.973.277 1.32-.081l1.05-1.05c.36-.35.397-.92.084-1.323l-.774-.996c.15-.292.277-.598.38-.916l1.25-.16c.502-.06.88-.486.88-.99V7.253c0-.504-.377-.93-.877-.99zM8 11.333c-1.838 0-3.333-1.495-3.333-3.333S6.162 4.667 8 4.667 11.334 6.162 11.334 8 9.838 11.333 8 11.333z"/>
</svg>
